<svg xmlns:x="http://ns.adobe.com/Extensibility/1.0/" xmlns:i="http://ns.adobe.com/AdobeIllustrator/10.0/" xmlns:graph="http://ns.adobe.com/Graphs/1.0/" xmlns="http://www.w3.org/2000/svg" xmlns:xlink="http://www.w3.org/1999/xlink" version="1.1" x="0px" y="0px" viewBox="0 0 100 100" enable-background="new 0 0 100 100" xml:space="preserve"><metadata><sfw xmlns="http://ns.adobe.com/SaveForWeb/1.0/"><slices></slices><sliceSourceBounds width="1448.7" height="1448.2" x="0.3" y="-1449.4" bottomLeftOrigin="true"></sliceSourceBounds></sfw></metadata><path d="M53.2,56.2c0,1-0.4,1.9-1.2,2.4l0.8,4c0.1,0.4-0.3,0.9-0.7,0.9H50h-2.1c-0.5,0-0.8-0.4-0.7-0.9l0.8-4  c-0.8-0.7-1.3-1.8-1.1-2.9c0.2-1.4,1.4-2.5,2.7-2.6c0.1,0,0.3,0,0.4,0C51.7,53,53.2,54.4,53.2,56.2z M58.2,45.6l0-5  c0-4.5-3.6-8.1-8.1-8.1c-0.3,0-0.5,0-0.8,0C45.2,33,42,36.7,42,40.9v4.8H58.2L58.2,45.6z M13.4,75.9C6.8,68.8,2.9,59.8,2.9,50  C2.9,27.2,24,8.7,50,8.7c26,0,47.1,18.5,47.1,41.3S76,91.3,50,91.3c-9.4,0-18.2-2.4-25.6-6.6c-6.6,4-13.8,3.8-18,3.3  c-1.2-0.2-1.5-1.7-0.5-2.4C10,82.9,12.2,79.2,13.4,75.9z M31.6,67c0,2.1,1.7,3.8,3.8,3.8h29.2c2.1,0,3.8-1.7,3.8-3.8V49.4  c0-2.1-1.7-3.8-3.8-3.8h-0.1v-5c0-7.9-6.4-14.4-14.4-14.4c-0.2,0-0.4,0-0.6,0c-7.8,0.3-13.8,6.9-13.8,14.7v4.6h-0.3  c-2.1,0-3.8,1.7-3.8,3.8V67z"></path></svg>